<?xml version="1.0" encoding="UTF-8" standalone="no"?>
<!-- Created with Inkscape (http://www.inkscape.org/) -->

<svg
   xmlns:dc="http://purl.org/dc/elements/1.1/"
   xmlns:cc="http://creativecommons.org/ns#"
   xmlns:rdf="http://www.w3.org/1999/02/22-rdf-syntax-ns#"
   xmlns:svg="http://www.w3.org/2000/svg"
   xmlns="http://www.w3.org/2000/svg"
   xmlns:sodipodi="http://sodipodi.sourceforge.net/DTD/sodipodi-0.dtd"
   xmlns:inkscape="http://www.inkscape.org/namespaces/inkscape"
   id="svg2532"
   sodipodi:version="0.32"
   inkscape:version="0.46+devel 22040"
   width="82.141785"
   height="122.31615"
   version="1.0"
   sodipodi:docname="fort.svg"
   inkscape:output_extension="org.inkscape.output.svg.inkscape">
  <metadata
     id="metadata2537">
    <rdf:RDF>
      <cc:Work
         rdf:about="">
        <dc:format>image/svg+xml</dc:format>
        <dc:type
           rdf:resource="http://purl.org/dc/dcmitype/StillImage" />
        <dc:title></dc:title>
        <dc:subject>
          <rdf:Bag>
            <rdf:li>forte citadel protection gate military building structure castle</rdf:li>
          </rdf:Bag>
        </dc:subject>
      </cc:Work>
    </rdf:RDF>
  </metadata>
  <defs
     id="defs2535">
    <inkscape:perspective
       sodipodi:type="inkscape:persp3d"
       inkscape:vp_x="0 : 526.18109 : 1"
       inkscape:vp_y="0 : 1000 : 0"
       inkscape:vp_z="744.09448 : 526.18109 : 1"
       inkscape:persp3d-origin="372.04724 : 350.78739 : 1"
       id="perspective2539" />
  </defs>
  <sodipodi:namedview
     inkscape:window-height="751"
     inkscape:window-width="1280"
     inkscape:pageshadow="2"
     inkscape:pageopacity="0.0"
     guidetolerance="10.0"
     gridtolerance="10.0"
     objecttolerance="10.0"
     borderopacity="1.0"
     bordercolor="#666666"
     pagecolor="#ffffff"
     id="base"
     showgrid="false"
     inkscape:zoom="2.52467"
     inkscape:cx="-23.520122"
     inkscape:cy="66.681163"
     inkscape:window-x="-4"
     inkscape:window-y="-4"
     inkscape:current-layer="svg2532"
     inkscape:window-maximized="1" />
  <path
     style="fill:#000000;fill-opacity:1;fill-rule:evenodd;stroke:none"
     d=""
     id="path3053" />
  <g
     id="g3073"
     transform="translate(-20.72718,-17.079344)">
    <path
       id="path2573"
       d="m 49.785917,124.22887 26.516504,0.17678"
       style="fill:none;stroke:#ffffff;stroke-width:1px;stroke-linecap:butt;stroke-linejoin:miter;stroke-opacity:1" />
    <path
       id="path2577"
       d="m 69.231354,110.26351 0.176776,15.9099"
       style="fill:none;stroke:#ffffff;stroke-width:1px;stroke-linecap:butt;stroke-linejoin:miter;stroke-opacity:1" />
    <path
       id="path2579"
       d="m 62.513839,107.78864 0.176777,18.56155"
       style="fill:none;stroke:#ffffff;stroke-width:1px;stroke-linecap:butt;stroke-linejoin:miter;stroke-opacity:1" />
    <path
       id="path2581"
       d="m 56.326655,110.79384 0.176777,15.55635"
       style="fill:none;stroke:#ffffff;stroke-width:1px;stroke-linecap:butt;stroke-linejoin:miter;stroke-opacity:1" />
    <path
       id="path3043"
       d="m 41.124774,138.87793 c -7.389863,-1.49027 -18.912189,-5.07778 -20.089248,-6.25483 -0.46754,-0.46754 -0.42603,-1.15873 0.280634,-4.67292 2.125336,-10.56912 5.180037,-20.69787 6.503799,-21.56523 1.433219,-0.93908 6.371824,-2.03093 12.710678,-2.81013 4.903047,-0.6027 8.848678,-0.73133 22.577208,-0.73602 11.595361,-0.004 17.715939,0.15049 20.20066,0.50973 6.057679,0.87582 14.234961,2.54364 14.737213,3.00577 0.889506,0.81845 5.287012,25.12 4.783182,26.43294 -0.39631,1.03278 -11.025428,4.1271 -18.134075,5.27915 -5.992158,0.9711 -5.381662,1.51236 -5.674857,-5.0313 -0.538621,-12.02117 -2.609798,-18.26924 -7.561499,-22.81055 -2.818214,-2.58464 -4.954018,-3.419 -8.746715,-3.41692 -2.707114,0.001 -3.480934,0.16497 -5.311824,1.12224 -4.522403,2.3645 -8.177172,7.7295 -9.344777,13.7176 -0.318585,1.63388 -0.840139,5.95011 -1.159009,9.59163 -0.318869,3.64152 -0.773819,6.98354 -1.010999,7.42671 -0.492005,0.91932 -1.11578,0.94712 -4.760371,0.21213 z M 38.748226,125.6518 c 1.300969,-0.3596 1.753293,-1.81445 2.388973,-7.68388 0.624883,-5.76973 0.570345,-5.86119 -3.649139,-6.11981 -5.101233,-0.31267 -5.715815,0.38456 -7.034894,7.98092 -1.18327,6.81425 -1.51748,6.18227 3.244895,6.13596 2.232965,-0.0217 4.50554,-0.16265 5.050165,-0.31319 z m 58.621522,-0.0811 c 0,-1.18187 -2.869187,-12.13145 -3.38527,-12.9191 -0.558477,-0.85234 -0.850376,-0.90641 -4.893281,-0.90641 -3.173551,0 -4.418237,0.14322 -4.75329,0.54694 -0.346759,0.41782 -0.205932,1.61004 0.596529,5.05016 1.333454,5.71645 2.276876,7.80164 3.667711,8.10656 0.574103,0.12586 1.222061,0.28829 1.439911,0.36096 1.083876,0.36156 7.32769,0.15782 7.32769,-0.23911 l 0,0 z"
       style="fill:#000000;fill-opacity:1;fill-rule:evenodd;stroke:none" />
    <path
       id="path3045"
       d="M 83.704596,95.664331 C 72.686379,93.798075 56.57012,93.316178 44.887642,94.50366 c -3.267753,0.332154 -6.539205,0.604313 -7.269893,0.6048 l -1.328522,8.83e-4 0.269149,-3.267754 c 0.85586,-10.391063 4.548005,-39.88834 5.432663,-43.402616 0.319177,-1.26792 0.700711,-1.820482 1.465991,-2.123139 5.002202,-1.978303 18.780211,-2.891088 28.532808,-1.890282 4.012144,0.411724 11.373312,2.058805 11.999405,2.684901 0.709325,0.709323 1.629663,10.503605 3.077357,32.749373 0.480174,7.378516 1.155664,14.752529 1.442275,15.744631 0.239188,0.827958 -0.234692,0.833864 -4.804279,0.05987 z m -14.457335,-26.895064 0,-7.32769 -6.337462,0 -6.337461,0 0,7.32769 0,7.327691 6.337461,0 6.337462,0 0,-7.327691 z"
       style="fill:#000000;fill-opacity:1;fill-rule:evenodd;stroke:none" />
    <path
       id="path3047"
       d="m 39.9365,44.669083 c 0,-1.101593 1.661893,-1.949882 6.012115,-3.068799 6.232501,-1.603056 10.769011,-1.981362 18.566306,-1.548274 6.383141,0.354542 11.274845,1.023825 16.020944,2.191985 2.820908,0.694312 5.347234,1.751779 5.347234,2.238241 0,0.7862 -1.436525,0.784006 -4.686038,-0.0072 -4.695858,-1.143303 -14.651182,-1.77943 -24.324115,-1.554263 -7.112291,0.16556 -8.4521,0.305699 -11.787258,1.232905 -4.262183,1.184927 -5.149188,1.273705 -5.149188,0.515363 z"
       style="fill:#000000;fill-opacity:1;fill-rule:evenodd;stroke:none" />
    <path
       id="path3049"
       d="m 85.288962,41.622586 c -8.340211,-2.209458 -18.353326,-3.31174 -27.726396,-3.052229 -5.264771,0.145766 -6.744522,0.354543 -12.994022,1.833321 -6.677164,1.579973 -8.814084,1.757155 -8.497954,0.704605 0.222813,-0.741849 3.418463,-2.165183 6.798001,-3.027811 5.346241,-1.36463 9.926305,-1.778786 19.249026,-1.740608 7.279521,0.02981 9.776427,0.192609 13.630688,0.888717 6.736056,1.216583 13.699616,3.663377 13.699616,4.81365 0,0.531525 -0.918247,0.438873 -4.158959,-0.419645 z"
       style="fill:#000000;fill-opacity:1;fill-rule:evenodd;stroke:none" />
    <path
       id="path3051"
       d="m 89.018823,39.096224 c -0.45556,-0.453345 -10.132227,-2.999807 -12.869214,-3.386595 -1.726713,-0.244017 -6.606191,-0.611959 -10.843282,-0.81765 -9.330562,-0.452953 -14.572449,-0.06231 -21.869331,1.629767 -2.905599,0.673781 -6.121606,1.359513 -7.146682,1.523849 l -1.863775,0.298791 -0.58582,-2.61167 c -1.022755,-4.559594 -1.826046,-9.191464 -1.826046,-10.5292 0,-1.063174 0.21108,-1.381943 1.18116,-1.783763 1.606408,-0.665396 2.234566,-0.327753 2.553547,1.372567 0.338984,1.806938 0.924378,2.027883 3.726001,1.4063 3.868752,-0.858341 4.301835,-1.228086 4.616768,-3.941562 0.151234,-1.303044 0.525867,-2.577396 0.832518,-2.831893 0.30665,-0.254497 1.377964,-0.555195 2.380697,-0.668218 2.140932,-0.241314 2.518398,0.13224 2.527355,2.501161 0.0033,0.882294 0.219955,1.818059 0.481375,2.07948 0.315978,0.315978 2.042071,0.475309 5.149188,0.475309 l 4.673878,0 0,-2.600633 c 0,-3.789268 0.281921,-4.13292 3.390516,-4.13292 2.394765,0 2.596865,0.06945 2.956749,1.016014 0.212459,0.558808 0.386288,2.073857 0.386288,3.366777 l 0,2.350762 4.526758,0 c 5.012398,0 5.771618,-0.31208 5.771618,-2.372445 0,-1.808976 0.386161,-2.380651 1.608107,-2.380651 2.154519,0 3.077127,0.75396 3.82909,3.129159 0.655682,2.071085 0.846586,2.289191 2.880721,3.291234 1.198177,0.590238 2.713226,1.124961 3.366777,1.188274 1.057786,0.102474 1.202997,-0.01537 1.322347,-1.073159 0.173571,-1.53838 0.728139,-2.178503 1.887336,-2.178503 1.403153,0 1.54411,1.39982 0.607758,6.035517 -1.488899,7.371269 -2.706211,10.585497 -3.652402,9.643901 z"
       style="fill:#000000;fill-opacity:1;fill-rule:evenodd;stroke:none" />
    <path
       id="path3057"
       d="m 76.64818,136.5116 c -0.402787,-0.64577 -0.552528,-2.10725 -0.668795,-6.52746 -0.05229,-1.98788 -0.124096,-3.95967 -0.159574,-4.38176 l -0.06451,-0.76743 -2.957899,0 -2.957899,0 0,0.63211 c 0,0.57819 -0.019,0.63536 -0.222801,0.67028 -0.122541,0.021 -0.323062,0.0231 -0.445603,0.005 -0.204479,-0.0308 -0.222801,-0.0859 -0.222801,-0.67029 l 0,-0.63676 -1.122889,0 c -0.617588,0 -1.932116,-0.0293 -2.921173,-0.0651 l -1.798286,-0.0651 0,0.79697 0,0.79698 -0.335756,0.0392 c -0.533588,0.0623 -0.555449,0.0301 -0.555449,-0.81797 l 0,-0.78393 -2.624106,0 -2.624105,0 0,0.79218 0,0.79219 -0.445603,0 -0.445603,0 0,-0.78784 0,-0.78783 -2.846906,-0.0291 c -1.565799,-0.016 -2.862978,-0.0205 -2.88262,-0.01 -0.01964,0.0106 -0.05486,0.32249 -0.07825,0.69316 -0.364237,5.7711 -1.164989,10.82379 -1.715359,10.82379 -0.286659,0 -0.349104,-0.56473 -0.339431,-3.06971 0.0098,-2.5448 0.151808,-4.45834 0.536354,-7.22867 0.460679,-3.31879 1.203935,-6.05679 1.550035,-5.70999 0.0453,0.0454 0.08236,0.85213 0.08236,1.79276 l 0,1.71023 1.38632,0.0634 c 0.762476,0.0349 2.028617,0.0636 2.813647,0.0638 l 1.427328,3.6e-4 -0.06585,-6.48599 -0.06585,-6.486 0.429809,0 0.429809,0 0.06539,2.54115 c 0.03596,1.39763 0.06571,4.01554 0.06609,5.81759 3.86e-4,1.80205 0.02911,3.57723 0.06383,3.94485 l 0.06313,0.6684 2.611541,0 2.611541,0 -0.0538,-7.45146 c -0.02959,-4.09831 -0.07426,-7.70769 -0.09926,-8.02085 l -0.04546,-0.56939 0.477816,0 0.477815,0 0.07054,7.99309 c 0.0388,4.3962 0.07932,7.99941 0.09005,8.00714 0.01073,0.008 1.323427,0.0413 2.917106,0.0746 l 2.897597,0.0606 -0.05132,-4.28012 c -0.02823,-2.35406 -0.07368,-5.42755 -0.101,-6.82996 l -0.04968,-2.54983 0.432295,0 0.432295,0 0.06362,0.60866 c 0.03499,0.33476 0.06362,2.06536 0.06362,3.84576 0,1.7804 0.02946,4.58116 0.06548,6.22391 l 0.06548,2.98682 2.918001,0 2.918001,0 -0.06812,-0.71792 c -0.03747,-0.39485 -0.154625,-1.34054 -0.260352,-2.10153 -0.268099,-1.92968 -0.256232,-2.02407 0.155966,-1.24049 0.464942,0.88385 0.785475,1.9186 1.078036,3.48014 0.54325,2.89958 0.804684,6.32364 0.720943,9.44234 -0.05967,2.2222 -0.172523,3.25045 -0.405568,3.69523 l -0.130777,0.2496 -0.149391,-0.23952 0,0 z"
       style="fill:#000000;fill-opacity:1;fill-rule:evenodd;stroke:none" />
    <path
       id="path3059"
       d="m 29.254453,103.55598 c -0.17532,-0.11109 0.07735,-0.51567 0.518626,-0.83044 2.115346,-1.5089 11.667282,-3.031733 23.183034,-3.696 4.081512,-0.235435 11.721247,-0.239255 15.596097,-0.0078 13.729917,0.820128 25.682162,2.61711 26.880637,4.04142 0.138392,0.16447 0.251622,0.34017 0.251622,0.39046 0,0.17048 -0.753416,0.0925 -2.483561,-0.25711 -6.536705,-1.32078 -13.542638,-2.04664 -24.500163,-2.5384 -1.470489,-0.066 -5.480915,-0.12056 -8.912056,-0.12126 -11.845125,-0.002 -16.586533,0.44478 -27.763631,2.61852 -2.813582,0.54719 -2.590244,0.5149 -2.770605,0.40061 z"
       style="fill:#000000;fill-opacity:1;fill-rule:evenodd;stroke:none" />
    <path
       id="path3061"
       d="m 32.210828,100.32019 c 0,-0.14138 0.576742,-0.789317 0.969604,-1.08929 1.214024,-0.926976 5.548226,-2.109649 9.576328,-2.613091 12.370089,-1.546045 39.259387,-0.629977 46.936827,1.599049 1.106489,0.321252 1.930946,0.806706 1.930946,1.136975 0,0.19619 -0.961619,0.167295 -2.290307,-0.06882 -9.18921,-1.632981 -16.037189,-2.29346 -25.287555,-2.438954 -9.227719,-0.145138 -17.760533,0.543375 -26.092519,2.105406 -1.577355,0.295713 -2.895619,0.617526 -4.443819,1.084815 -1.15785,0.34948 -1.299505,0.38043 -1.299505,0.28391 z"
       style="fill:#000000;fill-opacity:1;fill-rule:evenodd;stroke:none" />
    <path
       id="path3063"
       d="m 67.332997,69.046517 c -0.08544,-0.607585 -0.08915,-3.245902 -0.0054,-3.856724 0.165149,-1.204894 0.482423,0.577292 0.402591,2.261424 -0.03098,0.65355 -0.117698,1.388795 -0.192705,1.633877 l -0.136378,0.445602 -0.06808,-0.484179 z"
       style="fill:#000000;fill-opacity:1;fill-rule:evenodd;stroke:none" />
    <path
       id="path3065"
       d="m 51.155896,22.074 c -0.115363,-0.441897 -0.07456,-1.641096 0.0647,-1.901293 l 0.128756,-0.240582 0.18449,0.227836 c 0.250279,0.309082 0.24477,1.202273 -0.01089,1.765504 -0.105066,0.231466 -0.214639,0.420847 -0.243495,0.420847 -0.02886,0 -0.08446,-0.12254 -0.123557,-0.272312 z"
       style="fill:#000000;fill-opacity:1;fill-rule:evenodd;stroke:none" />
    <path
       id="path3067"
       d="m 74.181949,22.279253 c -0.08884,-0.107042 -0.145201,-0.529246 -0.168457,-1.261865 -0.03787,-1.193083 0.09275,-1.938829 0.339614,-1.938829 0.197729,0 1.108694,0.858479 1.296648,1.221942 0.0935,0.180819 0.12615,0.407399 0.088,0.61077 -0.06909,0.368282 -0.735019,1.173444 -1.146526,1.386242 -0.24493,0.126658 -0.2907,0.124616 -0.409277,-0.01826 l 0,0 z"
       style="fill:#000000;fill-opacity:1;fill-rule:evenodd;stroke:none" />
    <path
       id="path3069"
       d="m 87.550134,24.651647 c -0.14411,-0.02144 -0.34114,-0.126405 -0.437843,-0.233261 -0.170592,-0.188502 -0.160911,-0.208658 0.325289,-0.677293 0.757279,-0.72992 1.414313,-0.776384 1.414313,-0.100018 0,0.709232 -0.53508,1.124621 -1.301759,1.010572 z"
       style="fill:#000000;fill-opacity:1;fill-rule:evenodd;stroke:none" />
    <path
       id="path3071"
       d="m 39.199282,117.14411 c -0.238274,-0.62093 -0.135021,-2.03561 0.152616,-2.091 0.387721,-0.0747 0.511496,1.12542 0.189287,1.83526 -0.212027,0.4671 -0.24992,0.49545 -0.341903,0.25574 z"
       style="fill:#000000;fill-opacity:1;fill-rule:evenodd;stroke:none" />
  </g>
</svg>
